<?xml version="1.0" standalone="no"?>
<!DOCTYPE svg PUBLIC "-//W3C//DTD SVG 20010904//EN"
 "http://www.w3.org/TR/2001/REC-SVG-20010904/DTD/svg10.dtd">
<svg version="1.0" xmlns="http://www.w3.org/2000/svg"
 width="140.000000pt" height="140.000000pt" viewBox="0 0 140.000000 140.000000"
 preserveAspectRatio="xMidYMid meet">

<g transform="translate(0.000000,140.000000) scale(0.100000,-0.100000)"
fill="#000000" stroke="none">
<path d="M613 1226 c-172 -40 -327 -175 -395 -345 -19 -48 -22 -75 -22 -186 0
-109 3 -139 21 -188 57 -152 180 -275 328 -329 74 -26 217 -35 299 -18 196 40
365 206 411 402 79 336 -158 656 -500 674 -49 2 -104 -2 -142 -10z m215 -51
c95 -23 167 -61 236 -126 163 -152 202 -390 99 -593 -35 -70 -144 -175 -217
-210 -33 -16 -95 -35 -138 -44 -71 -14 -86 -14 -159 1 -107 21 -177 56 -253
128 -200 186 -210 498 -24 695 127 134 291 188 456 149z"/>
<path d="M612 1144 c-226 -61 -377 -289 -342 -517 49 -322 376 -497 666 -356
108 52 214 185 244 304 15 63 15 179 0 236 -65 245 -327 398 -568 333z m98
-40 c0 -6 -7 -14 -15 -18 -10 -3 -15 1 -15 13 0 10 7 18 15 18 8 0 15 -6 15
-13z m46 -4 c0 -24 -20 -21 -24 3 -2 9 3 17 10 17 8 0 14 -9 14 -20z m44 0 c0
-11 -4 -20 -9 -20 -7 0 -8 17 -2 38 4 10 11 -2 11 -18z m-143 -5 c0 -11 -4
-12 -14 -4 -7 6 -13 13 -13 15 0 2 6 4 13 4 8 0 14 -7 14 -15z m193 -11 c0 -8
-6 -14 -14 -14 -9 0 -12 7 -9 20 6 22 23 18 23 -6z m-232 -9 c-3 -3 -9 2 -12
12 -6 14 -5 15 5 6 7 -7 10 -15 7 -18z m-38 -7 c0 -19 -2 -20 -10 -8 -13 19
-13 30 0 30 6 0 10 -10 10 -22z m310 2 c0 -11 -4 -20 -8 -20 -4 0 -8 9 -9 20
-1 11 2 20 8 20 5 0 9 -9 9 -20z m-367 -25 c4 -8 1 -17 -5 -21 -7 -5 -8 -2 -3
6 6 10 4 12 -10 6 -15 -5 -16 -4 -5 9 15 19 16 19 23 0z m330 -18 c21 -9 36
-21 33 -26 -4 -6 -20 -4 -40 4 -74 31 -172 27 -260 -10 -14 -6 -18 -5 -14 6 2
8 27 22 54 32 59 21 170 18 227 -6z m118 6 c12 -15 12 -16 -3 -10 -10 3 -18 2
-18 -4 0 -6 -5 -7 -12 -3 -9 6 -9 9 0 12 7 2 10 8 6 13 -10 16 13 10 27 -8z
m-516 -45 c-4 -13 -18 -34 -31 -48 l-24 -25 0 25 c0 23 35 70 52 70 5 0 6 -10
3 -22z m582 0 c26 -24 32 -71 9 -62 -13 5 -46 62 -46 78 0 12 14 6 37 -16z
m-497 -18 c0 -5 -4 -10 -10 -10 -5 0 -10 5 -10 10 0 6 5 10 10 10 6 0 10 -4
10 -10z m400 0 c0 -5 -4 -10 -10 -10 -5 0 -10 5 -10 10 0 6 5 10 10 10 6 0 10
-4 10 -10z m-450 -38 c0 -13 -43 -49 -67 -57 -32 -9 -29 9 8 39 30 25 59 34
59 18z m252 -34 c-16 -16 -35 3 -26 26 6 16 8 16 22 2 13 -12 13 -18 4 -28z
m287 16 c17 -14 31 -30 31 -36 0 -14 -41 1 -67 25 -47 42 -13 52 36 11z m-349
-14 c0 -5 -7 -10 -16 -10 -8 0 -12 5 -9 10 3 6 10 10 16 10 5 0 9 -4 9 -10z
m125 0 c3 -5 -3 -10 -15 -10 -12 0 -18 5 -15 10 3 6 10 10 15 10 5 0 12 -4 15
-10z m-435 -66 c0 -11 -6 -29 -14 -39 -13 -18 -14 -17 -20 12 -9 38 11 84 25
62 5 -8 9 -23 9 -35z m760 -3 c0 -9 -5 -23 -10 -31 -19 -29 -39 25 -23 66 6
16 7 16 20 -2 7 -10 13 -25 13 -33z m-714 -7 c-11 -7 -22 -11 -25 -8 -3 3 3
12 13 20 11 7 22 11 25 8 3 -3 -3 -12 -13 -20z m562 4 c-2 -19 -10 -24 -40
-26 l-37 -3 -3 -137 c-3 -133 -4 -137 -25 -140 -23 -3 -23 -3 -23 137 l0 141
-45 0 c-43 0 -45 -2 -45 -28 0 -15 -7 -38 -16 -50 -15 -21 -15 -25 1 -42 9
-10 19 -36 22 -57 4 -32 0 -45 -20 -69 -25 -28 -27 -29 -124 -29 l-98 0 -3
138 c-2 113 -5 137 -17 137 -9 0 -15 10 -15 25 l0 25 246 0 245 0 -3 -22z m92
-9 c0 -6 -7 -6 -20 1 -11 6 -20 15 -20 21 0 6 7 6 20 -1 11 -6 20 -15 20 -21z
m-649 -37 c-19 -36 -71 -62 -71 -37 0 22 37 55 60 55 17 0 19 -3 11 -18z m669
-2 c25 -25 27 -52 3 -43 -25 9 -42 23 -54 45 -8 15 -6 18 11 18 11 0 29 -9 40
-20z m-755 -80 c17 -33 20 -70 5 -70 -15 0 -44 66 -37 84 9 23 14 20 32 -14z
m825 -7 c0 -7 -11 -25 -25 -40 l-24 -28 -1 30 c0 39 29 83 41 64 5 -8 9 -19 9
-26z m-775 -2 c-7 -23 -25 -29 -25 -8 0 14 21 39 28 33 2 -3 1 -14 -3 -25z
m715 -14 c0 -20 -25 1 -28 24 -2 23 -2 23 13 5 8 -11 15 -24 15 -29z m-610 3
c0 -5 -16 -10 -35 -10 -19 0 -35 5 -35 10 0 6 16 10 35 10 19 0 35 -4 35 -10z
m550 0 c0 -5 -22 -10 -50 -10 -27 0 -50 5 -50 10 0 6 23 10 50 10 28 0 50 -4
50 -10z m-639 -97 c5 -14 7 -34 3 -45 -10 -32 -34 -1 -34 44 0 43 15 43 31 1z
m689 1 c0 -32 -18 -66 -31 -59 -12 8 -11 39 2 69 14 30 29 25 29 -10z m-700
-94 c0 -16 -15 -12 -44 11 -17 13 -26 30 -26 47 l1 27 34 -37 c19 -21 35 -42
35 -48z m750 60 c0 -25 -42 -70 -66 -70 -15 0 -15 2 1 28 15 22 53 61 63 62 1
0 2 -9 2 -20z m-676 -72 c9 -12 16 -34 16 -48 l-1 -25 -24 28 c-25 28 -34 67
-16 67 6 0 17 -10 25 -22z m566 3 c0 -11 -11 -33 -25 -48 l-24 -28 -1 29 c0
28 24 66 42 66 4 0 8 -9 8 -19z m-350 -1 c0 -5 -7 -10 -15 -10 -8 0 -15 5 -15
10 0 6 7 10 15 10 8 0 15 -4 15 -10z m70 -15 c0 -19 -20 -29 -32 -17 -15 15
-2 43 17 36 8 -3 15 -12 15 -19z m50 15 c0 -5 -4 -10 -10 -10 -5 0 -10 5 -10
10 0 6 5 10 10 10 6 0 10 -4 10 -10z m-356 -60 c11 -11 17 -23 13 -27 -12 -12
-59 11 -76 36 -16 24 -15 24 14 17 17 -4 39 -16 49 -26z m636 20 c0 -20 -41
-50 -67 -50 l-28 1 33 29 c32 30 62 39 62 20z m-540 -41 c0 -5 -4 -9 -10 -9
-5 0 -10 7 -10 16 0 8 5 12 10 9 6 -3 10 -10 10 -16z m400 1 c0 -5 -4 -10 -10
-10 -5 0 -10 5 -10 10 0 6 5 10 10 10 6 0 10 -4 10 -10z m-315 -35 c52 -19
140 -19 201 0 58 17 64 18 64 6 0 -17 -104 -45 -166 -45 -61 0 -154 27 -154
45 0 12 8 11 55 -6z m-103 -23 c-7 -2 -10 -8 -7 -13 4 -5 -1 -6 -9 -3 -9 3
-16 10 -16 16 0 5 5 6 10 3 6 -3 10 -1 10 5 0 6 5 8 12 4 9 -6 9 -9 0 -12z
m436 -9 c-6 -7 -12 -13 -13 -13 -2 0 -5 6 -8 13 -3 7 3 13 14 13 13 0 15 -3 7
-13z m-369 -42 c-3 -6 -10 -7 -18 -2 -7 5 -10 14 -6 21 9 14 29 -2 24 -19z
m288 -3 c-6 -4 -15 -2 -19 5 -4 6 -2 15 5 19 6 4 15 2 19 -5 4 -6 2 -15 -5
-19z m-245 3 c8 12 9 12 6 0 -6 -22 -28 -25 -27 -4 0 12 2 14 6 4 5 -11 7 -11
15 0z m48 2 c0 -5 -5 -15 -10 -23 -8 -12 -10 -11 -10 8 0 12 5 22 10 22 6 0
10 -3 10 -7z m97 -25 c-3 -7 -5 -2 -5 12 0 14 2 19 5 13 2 -7 2 -19 0 -25z
m62 15 c0 -11 -3 -13 -6 -5 -2 6 -9 12 -14 12 -6 0 -7 -5 -3 -12 4 -7 3 -8 -5
-4 -14 9 -5 26 15 26 8 0 14 -8 13 -17z m-119 -8 c0 -8 -7 -15 -15 -15 -16 0
-20 12 -8 23 11 12 23 8 23 -8z m27 -7 c-3 -8 -6 -5 -6 6 -1 11 2 17 5 13 3
-3 4 -12 1 -19z"/>
<path d="M580 760 l0 -40 49 0 c32 0 55 6 65 16 37 36 10 64 -61 64 l-53 0 0
-40z"/>
<path d="M580 620 l0 -50 55 0 c47 0 57 3 71 25 15 23 15 27 0 50 -14 22 -24
25 -71 25 l-55 0 0 -50z"/>
</g>
</svg>
