<?xml version="1.0" standalone="no"?>
<!DOCTYPE svg PUBLIC "-//W3C//DTD SVG 20010904//EN"
 "http://www.w3.org/TR/2001/REC-SVG-20010904/DTD/svg10.dtd">
<svg version="1.0" xmlns="http://www.w3.org/2000/svg"
 width="670.000000pt" height="373.000000pt" viewBox="0 0 670.000000 373.000000"
 preserveAspectRatio="xMidYMid meet">

<g transform="translate(0.000000,373.000000) scale(0.100000,-0.100000)"
fill="#000000" stroke="none">
<path d="M4500 3721 c-101 -16 -201 -98 -252 -208 -27 -57 -31 -76 -30 -148 0
-74 3 -90 33 -145 67 -126 186 -200 322 -200 62 0 83 5 143 34 137 65 209 185
203 333 -11 218 -197 367 -419 334z"/>
<path d="M3439 3495 c-3 -2 -48 -9 -100 -14 -276 -27 -562 -63 -624 -77 -168
-39 -239 -122 -171 -201 l24 -28 466 4 466 3 37 -28 c21 -16 44 -35 53 -44 9
-8 51 -42 94 -75 119 -91 140 -110 132 -124 -4 -6 -89 -66 -189 -133 -100 -67
-184 -124 -187 -127 -3 -3 -61 -44 -130 -90 -302 -204 -367 -282 -358 -425 4
-53 13 -87 37 -135 35 -70 111 -180 176 -251 22 -25 99 -132 170 -238 158
-234 169 -252 162 -258 -7 -8 -224 -22 -497 -33 -344 -14 -411 -34 -460 -136
-29 -59 -16 -111 39 -154 74 -59 91 -60 766 -62 l614 -1 49 27 c93 51 104 112
41 231 -45 86 -176 310 -359 611 -70 117 -120 209 -117 217 3 9 52 43 109 76
128 76 207 125 352 218 62 39 118 72 123 72 10 0 33 -193 33 -275 0 -56 40
-137 76 -153 24 -11 211 -6 619 18 155 9 186 14 223 33 107 56 104 166 -5 197
-21 5 -172 13 -335 17 l-298 6 0 262 0 262 -48 79 c-27 43 -77 125 -112 182
l-64 102 -141 96 c-77 52 -212 145 -300 205 -196 136 -222 148 -301 149 -33 0
-63 -2 -65 -5z"/>
<path d="M1497 2863 c-4 -3 -7 -66 -7 -140 l0 -133 623 0 622 0 100 64 c55 36
119 78 142 95 23 17 47 31 53 31 5 0 10 5 10 10 0 6 5 10 11 10 17 0 79 52 73
61 -6 10 -1617 13 -1627 2z"/>
<path d="M1490 2150 l0 -140 540 0 540 0 -21 56 c-16 43 -20 71 -17 122 3 37
8 75 13 85 7 16 -22 17 -524 17 l-531 0 0 -140z"/>
<path d="M1492 1583 l3 -138 688 -3 c593 -2 687 0 687 12 0 8 -37 70 -83 138
l-82 123 -608 3 -608 2 3 -137z"/>
<path d="M3135 723 c-11 -2 -29 -6 -41 -8 -21 -4 -233 -231 -336 -359 -118
-146 -145 -234 -90 -294 31 -34 62 -52 91 -52 26 0 121 41 121 52 0 4 5 8 12
8 13 0 106 78 190 160 202 197 488 485 488 492 0 8 -397 9 -435 1z"/>
</g>
</svg>
