<?xml version="1.0" standalone="no"?>
<!DOCTYPE svg PUBLIC "-//W3C//DTD SVG 20010904//EN"
 "http://www.w3.org/TR/2001/REC-SVG-20010904/DTD/svg10.dtd">
<svg version="1.0" xmlns="http://www.w3.org/2000/svg"
 width="552.000000pt" height="452.000000pt" viewBox="0 0 552.000000 452.000000"
 preserveAspectRatio="xMidYMid meet">

<g transform="translate(0.000000,452.000000) scale(0.100000,-0.100000)"
fill="#000000" stroke="none">
<path d="M4554 4216 c-32 -14 -67 -55 -77 -91 -5 -16 -68 -476 -107 -778 -5
-39 -21 -157 -35 -262 -107 -783 -105 -743 -48 -797 38 -36 73 -48 144 -48
l59 0 0 -927 c0 -902 1 -929 20 -960 55 -90 181 -95 243 -9 l22 31 -3 1875
c-3 1752 -5 1877 -21 1905 -38 67 -123 93 -197 61z"/>
<path d="M803 4135 c-63 -27 -63 -25 -63 -537 0 -271 4 -490 11 -528 22 -141
108 -261 236 -328 l62 -32 -2 -1163 c-2 -1128 -1 -1163 17 -1194 11 -17 36
-41 56 -52 64 -36 126 -24 180 34 l25 27 3 1173 2 1174 62 33 c133 70 219 194
239 345 6 48 9 253 7 533 -3 415 -5 458 -21 483 -38 58 -127 50 -159 -14 -16
-30 -18 -67 -18 -316 l0 -283 -75 0 -75 0 0 280 c0 298 -5 336 -48 359 -12 6
-35 11 -52 11 -17 0 -40 -5 -52 -11 -43 -23 -48 -61 -48 -359 l0 -280 -75 0
-75 0 0 273 c0 158 -4 288 -11 310 -16 58 -72 86 -126 62z"/>
<path d="M2655 3885 c-272 -44 -510 -140 -728 -292 l-75 -52 -5 -243 c-6 -277
-14 -326 -78 -449 -38 -74 -125 -175 -201 -236 l-27 -22 -1 -665 0 -664 45
-59 c24 -33 93 -107 153 -165 500 -483 1249 -602 1877 -298 235 113 452 292
608 501 l57 76 0 367 0 366 -26 10 c-45 18 -114 71 -143 111 l-29 39 -6 -78
c-55 -613 -568 -1083 -1185 -1082 -140 0 -217 11 -335 45 -434 126 -763 496
-842 945 -22 130 -15 362 16 475 103 385 363 686 713 825 460 183 968 71 1310
-289 122 -129 207 -266 262 -429 l32 -93 36 263 c20 145 44 323 54 397 l17
134 -115 111 c-136 132 -256 216 -422 296 -240 116 -427 161 -697 166 -120 2
-203 -1 -265 -11z"/>
<path d="M2727 3205 c-427 -81 -740 -398 -807 -817 -17 -105 -8 -299 20 -403
94 -361 407 -647 780 -715 91 -16 273 -14 365 5 332 69 610 307 725 623 229
629 -219 1294 -890 1317 -76 3 -141 0 -193 -10z"/>
</g>
</svg>
