<svg xmlns="http://www.w3.org/2000/svg" xmlns:xlink="http://www.w3.org/1999/xlink" version="1.1" viewBox="4.39 120.13 790.3 558.84">
<g id="surface1">
<path style=" stroke:none;fill-rule:nonzero;fill:rgb(0%,34.117647%,76.470588%);fill-opacity:1;" d="M 343.421875 309.878906 C 332.859375 309.878906 322.425781 305.039062 315.664062 295.890625 C 304.335938 280.574219 307.566406 258.972656 322.882812 247.644531 L 426.828125 170.738281 C 436.414062 163.644531 449 162 460.082031 166.417969 L 590.859375 218.402344 C 608.5625 225.4375 617.210938 245.492188 610.171875 263.207031 C 603.136719 280.917969 583.070312 289.550781 565.378906 282.523438 L 452.433594 237.632812 L 363.917969 303.125 C 357.746094 307.671875 350.550781 309.878906 343.421875 309.878906 Z M 343.421875 309.878906 "/>
<path style=" stroke:none;fill-rule:nonzero;fill:rgb(0%,34.117647%,76.470588%);fill-opacity:1;" d="M 181.03125 658.238281 C 170.167969 658.238281 159.472656 653.128906 152.761719 643.546875 C 141.820312 627.953125 145.597656 606.4375 161.195312 595.496094 L 298.410156 499.238281 L 350.359375 394.730469 C 358.84375 377.667969 379.558594 370.730469 396.601562 379.1875 C 413.664062 387.671875 420.617188 408.378906 412.144531 425.429688 L 356.296875 537.785156 C 353.730469 542.941406 349.921875 547.367188 345.214844 550.667969 L 200.816406 651.976562 C 194.78125 656.210938 187.871094 658.238281 181.03125 658.238281 Z M 181.03125 658.238281 "/>
<path style=" stroke:none;fill-rule:nonzero;fill:rgb(0%,44.705882%,100%);fill-opacity:1;" d="M 381.269531 444.589844 C 371.222656 444.589844 361.273438 440.226562 354.453125 431.824219 C 342.449219 417.027344 344.722656 395.300781 359.519531 383.296875 L 556.386719 223.65625 C 571.179688 211.675781 592.90625 213.925781 604.910156 228.722656 C 616.90625 243.527344 614.640625 265.242188 599.84375 277.246094 L 402.976562 436.882812 C 396.582031 442.070312 388.898438 444.589844 381.269531 444.589844 Z M 381.269531 444.589844 "/>
<path style=" stroke:none;fill-rule:nonzero;fill:rgb(0%,44.705882%,100%);fill-opacity:1;" d="M 636.171875 382.71875 C 624.378906 382.71875 612.917969 376.660156 606.480469 365.824219 L 548.457031 268.0625 C 538.726562 251.683594 544.125 230.511719 560.503906 220.792969 C 576.890625 211.070312 598.0625 216.472656 607.773438 232.847656 L 648.730469 301.84375 L 743.503906 249.445312 C 760.1875 240.226562 781.167969 246.273438 790.386719 262.941406 C 799.597656 279.617188 793.566406 300.605469 776.890625 309.824219 L 652.828125 378.40625 C 647.550781 381.332031 641.828125 382.71875 636.171875 382.71875 Z M 636.171875 382.71875 "/>
<path style=" stroke:none;fill-rule:nonzero;fill:rgb(0%,44.705882%,100%);fill-opacity:1;" d="M 736.785156 179.6875 C 736.785156 212.578125 710.125 239.242188 677.234375 239.242188 C 644.339844 239.242188 617.679688 212.578125 617.679688 179.6875 C 617.679688 146.796875 644.339844 120.132812 677.234375 120.132812 C 710.125 120.132812 736.785156 146.796875 736.785156 179.6875 Z M 736.785156 179.6875 "/>
<path style=" stroke:none;fill-rule:nonzero;fill:rgb(0%,44.705882%,100%);fill-opacity:1;" d="M 512.445312 499.351562 C 508.019531 499.351562 503.511719 498.488281 499.175781 496.679688 L 367.957031 441.929688 C 350.375 434.597656 342.070312 414.390625 349.410156 396.8125 C 356.753906 379.230469 376.957031 370.941406 394.527344 378.265625 L 525.738281 433.007812 C 543.328125 440.339844 551.625 460.546875 544.292969 478.125 C 538.769531 491.359375 525.949219 499.351562 512.445312 499.351562 Z M 512.445312 499.351562 "/>
<path style=" stroke:none;fill-rule:nonzero;fill:rgb(0%,44.705882%,100%);fill-opacity:1;" d="M 443.582031 678.972656 C 439.480469 678.972656 435.300781 678.242188 431.242188 676.679688 C 413.453125 669.855469 404.558594 649.90625 411.378906 632.113281 L 480.242188 452.484375 C 487.066406 434.695312 507.007812 425.789062 524.808594 432.613281 C 542.605469 439.4375 551.484375 459.386719 544.679688 477.179688 L 475.808594 656.808594 C 470.539062 670.542969 457.457031 678.972656 443.582031 678.972656 Z M 443.582031 678.972656 "/>
<path style=" stroke:none;fill-rule:nonzero;fill:rgb(53.72549%,53.72549%,53.72549%);fill-opacity:1;" d="M 281.910156 408.167969 L 21.640625 408.167969 C 12.113281 408.167969 4.394531 400.449219 4.394531 390.917969 C 4.394531 381.390625 12.113281 373.671875 21.640625 373.671875 L 281.910156 373.671875 C 291.4375 373.671875 299.15625 381.390625 299.15625 390.917969 C 299.164062 400.449219 291.4375 408.167969 281.910156 408.167969 Z M 281.910156 408.167969 "/>
<path style=" stroke:none;fill-rule:nonzero;fill:rgb(53.72549%,53.72549%,53.72549%);fill-opacity:1;" d="M 246.589844 316.339844 L 85.21875 316.339844 C 75.691406 316.339844 67.972656 308.621094 67.972656 299.09375 C 67.972656 289.566406 75.691406 281.847656 85.21875 281.847656 L 246.589844 281.847656 C 256.117188 281.847656 263.835938 289.566406 263.835938 299.09375 C 263.835938 308.621094 256.117188 316.339844 246.589844 316.339844 Z M 246.589844 316.339844 "/>
<path style=" stroke:none;fill-rule:nonzero;fill:rgb(53.72549%,53.72549%,53.72549%);fill-opacity:1;" d="M 225.402344 499.992188 L 85.21875 499.992188 C 75.691406 499.992188 67.972656 492.273438 67.972656 482.746094 C 67.972656 473.21875 75.691406 465.5 85.21875 465.5 L 225.402344 465.5 C 234.929688 465.5 242.648438 473.21875 242.648438 482.746094 C 242.648438 492.273438 234.929688 499.992188 225.402344 499.992188 Z M 225.402344 499.992188 "/>
</g>
</svg>